<svg height="300px" width="300px" fill="#000000" xmlns="http://www.w3.org/2000/svg" xmlns:xlink="http://www.w3.org/1999/xlink" version="1.1" x="0px" y="0px" viewBox="0 0 100 100" enable-background="new 0 0 100 100" xml:space="preserve"><path d="M98.158,81.016V49.494h-5.91V45.52h-2.753V16.355h-5.208V45.52h-2.753v3.974h-5.883V30.743l-23.81,10.822V30.743  l-23.81,10.822V30.743L1.842,42.648v38.368H0v2.629h100v-2.629L98.158,81.016L98.158,81.016z M17.237,66.474h-3.339v-3.339h3.339  L17.237,66.474z M17.237,59.96h-3.339v-3.339h3.339L17.237,59.96z M23.75,66.474h-3.339v-3.339h3.339V66.474z M23.75,59.96h-3.339  v-3.339h3.339V59.96z M30.263,66.474h-3.339v-3.339h3.339V66.474z M30.263,59.96h-3.339v-3.339h3.339V59.96z M48.983,66.474h-3.339  v-3.339h3.339V66.474z M48.983,59.96h-3.339v-3.339h3.339V59.96z M55.496,66.474h-3.339v-3.339h3.339V66.474z M55.496,59.96h-3.339  v-3.339h3.339V59.96z M62.01,66.474h-3.339v-3.339h3.339V66.474z M62.01,59.96h-3.339v-3.339h3.339V59.96z M84.501,72.987h-3.339  v-3.339h3.339V72.987z M84.501,66.474h-3.339v-3.339h3.339V66.474z M84.501,59.96h-3.339v-3.339h3.339V59.96z M91.015,72.987h-3.339  v-3.339h3.339V72.987z M91.015,66.474h-3.339v-3.339h3.339V66.474z M91.015,59.96h-3.339v-3.339h3.339V59.96z"/></svg>